<svg width="62" height="67" viewBox="0 0 62 67" fill="none" xmlns="http://www.w3.org/2000/svg">
<path fill-rule="evenodd" clip-rule="evenodd" d="M31.4594 1.12178L62 16.3921V51.1375L31.4489 65.9039C31.4394 65.9086 31.4299 65.9132 31.4203 65.9177L31 66.1208L30.5797 65.9177L30.5634 65.9099L30.5511 65.9039L0 51.1375V16.3921L1.5336 15.6253L1.55257 15.6156L30.5526 1.11556L30.5717 1.10622L31 0.89209L31.436 1.11007C31.4438 1.11387 31.4516 1.11777 31.4594 1.12178ZM15.2363 11.01L21.0002 8.12803L48.2639 21.7599L42.4982 24.6428C42.4816 24.6333 42.4647 24.6242 42.4474 24.6156L15.2363 11.01ZM44 26.1279L48.5 23.8779V33.1367L44 35.3907V26.1279ZM42 38.6293V27.1279L32 32.1279V63.3918L60 49.3918V18.1279L50.4919 22.882C50.4972 22.9239 50.5 22.9666 50.5 23.01V34.3718L42 38.6293ZM13.0002 12.128L40.2639 25.7599L31 30.3918L3.73632 16.76L13.0002 12.128ZM50.4982 20.6428L58.2637 16.76L31 3.12816L23.2363 7.01L50.4474 20.6156C50.4647 20.6242 50.4816 20.6333 50.4982 20.6428ZM2 18.1279L30 32.1279V63.4161L2 49.8828V18.1279ZM5.44743 39.1156C4.95345 38.8686 4.35278 39.0688 4.10579 39.5628C3.8588 40.0568 4.05903 40.6574 4.55301 40.9044L12.553 44.9044C13.047 45.1514 13.6477 44.9512 13.8946 44.4572C14.1416 43.9632 13.9414 43.3625 13.4474 43.1156L5.44743 39.1156ZM4.10579 44.5628C4.35278 44.0688 4.95345 43.8686 5.44743 44.1156L9.44743 46.1156C9.94141 46.3625 10.1416 46.9632 9.89465 47.4572C9.64766 47.9512 9.04698 48.1514 8.55301 47.9044L4.55301 45.9044C4.05903 45.6574 3.8588 45.0568 4.10579 44.5628Z" fill="#01488A"/>
</svg>
