<svg xmlns="http://www.w3.org/2000/svg"
 width="64px" height="64px" viewBox="0 0 63.000000 65.000000">

<g transform="translate(0.000000,65.000000) scale(0.100000,-0.100000)"
fill="#01488a" stroke="none">
<path d="M265 613 c-3 -15 -14 -36 -22 -45 -17 -19 -78 -25 -88 -8 -11 18 -41
11 -65 -15 -20 -21 -22 -28 -12 -50 27 -59 10 -101 -51 -124 -25 -10 -28 -15
-25 -52 3 -37 6 -43 38 -53 45 -14 59 -50 40 -105 -11 -33 -11 -43 0 -56 25
-30 47 -36 77 -20 15 8 33 15 39 15 23 0 64 -42 64 -65 0 -25 17 -35 61 -35
25 0 33 6 44 33 23 57 57 72 103 50 37 -18 55 -13 78 22 15 23 15 28 1 56 -26
54 -4 92 66 113 14 5 18 14 15 48 -3 37 -7 43 -36 52 -18 6 -37 18 -42 26 -13
20 -13 77 0 85 18 11 11 41 -15 65 -21 20 -28 22 -50 12 -59 -27 -109 -6 -117
48 -3 22 -8 25 -49 28 -44 3 -47 1 -54 -25z m85 -13 c0 -12 11 -32 26 -46 26
-26 60 -29 121 -9 32 10 48 -25 32 -70 -18 -49 -3 -85 44 -109 34 -16 38 -22
35 -50 -2 -23 -8 -32 -25 -34 -49 -7 -79 -84 -52 -134 9 -17 7 -24 -9 -40 -16
-16 -23 -18 -40 -9 -53 28 -132 -7 -132 -59 0 -16 -6 -20 -35 -20 -29 0 -35 4
-35 20 0 52 -79 87 -132 59 -16 -9 -24 -7 -44 12 -21 20 -22 24 -9 43 32 45 4
116 -50 130 -21 5 -25 12 -25 41 0 29 4 35 20 35 12 0 32 11 46 26 21 20 25
32 22 62 -3 20 -8 44 -12 53 -10 24 21 52 48 44 59 -19 85 -17 110 9 14 14 26
34 26 46 0 16 6 20 35 20 29 0 35 -4 35 -20z"/>
<path d="M256 500 c-42 -13 -93 -67 -112 -116 -52 -136 76 -282 214 -245 79
22 141 101 142 181 0 48 -37 117 -82 153 -41 33 -109 44 -162 27z m128 -24
c53 -22 89 -78 94 -146 5 -71 -8 -83 -49 -44 -23 22 -29 36 -29 72 0 60 -40
102 -99 102 -48 0 -51 -8 -16 -40 32 -31 34 -75 3 -84 -17 -4 -31 3 -53 24
-17 17 -34 30 -38 30 -4 0 -7 -18 -7 -41 0 -58 42 -99 102 -99 37 0 49 -5 78
-35 18 -19 32 -36 29 -38 -60 -53 -180 -22 -227 58 -47 82 -11 205 72 241 40
17 98 18 140 0z m-35 -46 c24 -12 45 -64 37 -92 -4 -18 4 -33 35 -64 l40 -41
-20 -24 -20 -24 -39 39 c-34 32 -47 38 -87 40 -54 2 -85 29 -85 74 l0 25 24
-22 c17 -16 33 -22 57 -19 30 3 34 7 37 37 3 24 -3 40 -19 57 l-22 24 22 0
c12 0 30 -4 40 -10z"/>
</g>
</svg>
