<svg width="64" height="66" viewBox="0 0 64 66" fill="none" xmlns="http://www.w3.org/2000/svg">
<path fill-rule="evenodd" clip-rule="evenodd" d="M25.5 52.8921L25.4722 50.8921H56.5V52.8921H25.5ZM25.0028 17.0949L25.4444 48.8921H32.691C28.3034 46.746 28 41.8921 28 41.8921V29.8921H47V31.8921H48C50.7614 31.8921 53 34.1307 53 36.8921C53 39.6535 50.7614 41.8921 48 41.8921H47C47 41.8921 46.6966 46.746 42.309 48.8921H57.3C57.9627 48.8921 58.5 49.4293 58.5 50.0921V52.8921H64V57.8921C64 62.3104 60.4183 65.8921 56 65.8921H7C3.13401 65.8921 0 62.7581 0 58.8921V1.89209C0 1.33981 0.447715 0.89209 1 0.89209H47C51.4183 0.89209 55 4.47381 55 8.89209V15.8921C55 16.4444 54.5523 16.8921 54 16.8921H46V17.8921C46 18.6032 45.8516 19.2796 45.584 19.8921H51V18.8921C51 18.3398 51.4477 17.8921 52 17.8921H61C62.6569 17.8921 64 19.2352 64 20.8921C64 22.5489 62.6569 23.8921 61 23.8921H52C51.4477 23.8921 51 23.4444 51 22.8921V21.8921H44.0005C43.1647 22.52 42.1258 22.8921 41 22.8921H40V25.8921C40 26.9967 39.1046 27.8921 38 27.8921H37C35.8954 27.8921 35 26.9967 35 25.8921V22.8921H34C31.2386 22.8921 29 20.6535 29 17.8921V16.8921H25.2028C25.0913 16.8921 25.0013 16.9833 25.0028 17.0949ZM31 16.8921H44V17.8921C44 19.5489 42.6569 20.8921 41 20.8921H34C32.3431 20.8921 31 19.5489 31 17.8921V16.8921ZM53 14.8921H46H29H25.2028C23.9758 14.8921 22.986 15.8958 23.003 17.1226L23.4998 52.8921H2V2.89209H47C50.3137 2.89209 53 5.57838 53 8.89209V14.8921ZM45 41.8033V36.8626C44.4982 36.5204 43.6273 36.1554 42.5408 36.0081C41.2324 35.8306 39.7746 35.9936 38.5147 36.7496L38.4622 36.7811L38.4063 36.806C36.0404 37.8575 34.1594 38.1573 32.5957 38.0129C31.565 37.9178 30.7148 37.633 30 37.2972V41.8033C30.0037 41.8373 30.0097 41.8879 30.019 41.953C30.0418 42.1131 30.0841 42.3573 30.159 42.657C30.3106 43.2633 30.5854 44.0552 31.071 44.8321C31.9769 46.2815 33.7289 47.8921 37.5 47.8921C41.2711 47.8921 43.0231 46.2815 43.929 44.8321C44.4146 44.0552 44.6894 43.2633 44.841 42.657C44.9159 42.3573 44.9582 42.1131 44.981 41.953C44.9903 41.8878 44.9963 41.8373 45 41.8033ZM45 34.6104V31.8921H30V35.026L30.0146 35.0347C30.79 35.4999 31.6396 35.9162 32.7796 36.0214C33.9147 36.1262 35.4344 35.9302 37.5408 35.0019C39.2667 33.9866 41.1852 33.8059 42.8095 34.0262C43.5893 34.132 44.3408 34.336 45 34.6104ZM47 39.8921H48C49.6569 39.8921 51 38.5489 51 36.8921C51 35.2352 49.6569 33.8921 48 33.8921H47V36.3748C47.0002 36.3864 47.0002 36.3981 47 36.4097V39.8921ZM62 54.8921H24.5H23.5276H2V58.8921C2 61.6535 4.23858 63.8921 7 63.8921H56C59.3137 63.8921 62 61.2058 62 57.8921V54.8921ZM9 8.89209C9 8.33981 9.44771 7.89209 10 7.89209H45C45.5523 7.89209 46 8.33981 46 8.89209C46 9.44438 45.5523 9.89209 45 9.89209H10C9.44771 9.89209 9 9.44438 9 8.89209ZM4 7.89209C3.44772 7.89209 3 8.33981 3 8.89209C3 9.44438 3.44772 9.89209 4 9.89209H6C6.55228 9.89209 7 9.44438 7 8.89209C7 8.33981 6.55228 7.89209 6 7.89209L4 7.89209ZM48 8.89209C48 8.33981 48.4477 7.89209 49 7.89209H51C51.5523 7.89209 52 8.33981 52 8.89209C52 9.44438 51.5523 9.89209 51 9.89209H49C48.4477 9.89209 48 9.44438 48 8.89209ZM9 25.8921H17C17.5523 25.8921 18 26.3398 18 26.8921V45.8921C18 46.4444 17.5523 46.8921 17 46.8921H9C8.44772 46.8921 8 46.4444 8 45.8921V26.8921C8 26.3398 8.44772 25.8921 9 25.8921ZM6 26.8921C6 25.2352 7.34315 23.8921 9 23.8921H17C18.6569 23.8921 20 25.2352 20 26.8921V45.8921C20 47.5489 18.6569 48.8921 17 48.8921H9C7.34315 48.8921 6 47.5489 6 45.8921V26.8921ZM13 32.8921C13.5523 32.8921 14 32.4444 14 31.8921C14 31.3398 13.5523 30.8921 13 30.8921C12.4477 30.8921 12 31.3398 12 31.8921C12 32.4444 12.4477 32.8921 13 32.8921ZM13 34.8921C14.6569 34.8921 16 33.5489 16 31.8921C16 30.2352 14.6569 28.8921 13 28.8921C11.3431 28.8921 10 30.2352 10 31.8921C10 33.5489 11.3431 34.8921 13 34.8921ZM14 40.8921C14 41.4444 13.5523 41.8921 13 41.8921C12.4477 41.8921 12 41.4444 12 40.8921C12 40.3398 12.4477 39.8921 13 39.8921C13.5523 39.8921 14 40.3398 14 40.8921ZM16 40.8921C16 42.5489 14.6569 43.8921 13 43.8921C11.3431 43.8921 10 42.5489 10 40.8921C10 39.2352 11.3431 37.8921 13 37.8921C14.6569 37.8921 16 39.2352 16 40.8921ZM5 56.8921C5.55228 56.8921 6 57.3398 6 57.8921C6 58.9967 6.89543 59.8921 8 59.8921H56C57.1046 59.8921 58 58.9967 58 57.8921C58 57.3398 58.4477 56.8921 59 56.8921C59.5523 56.8921 60 57.3398 60 57.8921C60 60.1012 58.2091 61.8921 56 61.8921H8C5.79086 61.8921 4 60.1012 4 57.8921C4 57.3398 4.44772 56.8921 5 56.8921ZM53 21.8921H61C61.5523 21.8921 62 21.4444 62 20.8921C62 20.3398 61.5523 19.8921 61 19.8921H53V21.8921ZM37 23.8921H38V25.8921H37V23.8921Z" fill="#01488A"/>
</svg>
