<svg width="56" height="66" viewBox="0 0 56 66" fill="none" xmlns="http://www.w3.org/2000/svg">
<path fill-rule="evenodd" clip-rule="evenodd" d="M12.1271 19.0211C12.508 14.8221 13.7449 11.1274 15.8308 8.35056C18.3524 4.99374 22.1755 2.89209 27.5 2.89209C32.8245 2.89209 36.6476 4.99374 39.1692 8.35056C41.2551 11.1274 42.492 14.8221 42.8729 19.0211C42.5967 18.9372 42.3036 18.8921 42 18.8921H39V16.3921C39 10.0408 33.8513 4.89209 27.5 4.89209C21.1487 4.89209 16 10.0408 16 16.3921V18.8921H13C12.6964 18.8921 12.4033 18.9372 12.1271 19.0211ZM10 21.8921C10 16.228 11.3439 10.9937 14.2317 7.14935C17.1476 3.2676 21.5745 0.89209 27.5 0.89209C33.4255 0.89209 37.8524 3.2676 40.7683 7.14935C43.6561 10.9937 45 16.228 45 21.8921V28.8921C45 30.5489 43.6569 31.8921 42 31.8921H38.9893C38.859 34.9378 37.5441 37.6767 35.4936 39.6597L37.219 43.4323C43.6208 45.3543 47.4842 47.5873 49.9705 49.9437C52.5091 52.3498 53.534 54.8162 54.3834 56.9296C55.8432 60.5615 55.9927 63.6211 56 64.5994C56.0056 65.3478 55.3924 65.892 54.7097 65.892H37.9997H18.0003H1.29028C0.607576 65.892 -0.00555321 65.3478 3.79448e-05 64.5994C0.00734595 63.6211 0.156779 60.5615 1.61657 56.9296C2.46603 54.8162 3.49086 52.3498 6.0295 49.9437C8.51579 47.5873 12.3792 45.3543 18.781 43.4323L20.133 40.4762C20.161 40.4149 20.1945 40.3577 20.2325 40.3051C18.7969 39.1331 17.6497 37.6212 16.9138 35.8921H14.3C13.582 35.8921 13 35.3101 13 34.5921V31.8921C11.3431 31.8921 10 30.5489 10 28.8921V21.8921ZM43 21.8921C43 21.3398 42.5523 20.8921 42 20.8921H40V29.8921H42C42.5523 29.8921 43 29.4444 43 28.8921V21.8921ZM37 16.3921V21.8882C35.1839 21.8335 33.2079 21.1895 31.3043 20.2469C28.7842 18.9993 26.5613 17.3131 25.3021 16.1558L24.9604 15.8418L24.5 15.9C22.0329 16.2118 19.9247 17.1188 18.3424 18.0696C18.2258 18.1397 18.1116 18.2103 18 18.2811V16.3921C18 11.1454 22.2533 6.89209 27.5 6.89209C32.7467 6.89209 37 11.1454 37 16.3921ZM30.4169 22.0393C32.4352 23.0386 34.7389 23.8339 37 23.8891V31.3921C37 36.6388 32.7467 40.8921 27.5 40.8921C23.8814 40.8921 20.7354 38.8689 19.1313 35.8921H28C28.5523 35.8921 29 35.4444 29 34.8921C29 34.3398 28.5523 33.8921 28 33.8921H18.3324C18.1157 33.0955 18 32.2573 18 31.3921V20.7232C18.3788 20.4275 18.8381 20.1051 19.3725 19.7839C20.6746 19.0014 22.3609 18.2648 24.3056 17.9485C25.7155 19.1846 27.9237 20.805 30.4169 22.0393ZM16.2725 33.8921C16.1289 33.2443 16.0399 32.5759 16.0107 31.8921H15V33.8921H16.2725ZM20.4677 44.553L21.2545 42.8326L26.195 46.538L21.2054 50.4584C20.538 48.3872 20.2362 46.4217 20.4051 44.6729C20.4279 44.6344 20.4488 44.5944 20.4677 44.553ZM22.4068 53.4998C22.2407 53.141 22.0834 52.7837 21.9353 52.4284L27.8512 47.7802L34.0609 52.4374C33.914 52.7898 33.7579 53.144 33.5932 53.4998C32.1786 56.5547 30.169 59.6214 28 62.32C25.831 59.6214 23.8214 56.5547 22.4068 53.4998ZM28 63.8917L27.9996 63.892H28.0004L28 63.8917ZM29.3003 63.892H37.9997H53.9726C53.8931 62.6495 53.5959 60.3332 52.5277 57.6755C51.6958 55.6056 50.8011 53.4865 48.5947 51.3953C46.5287 49.4373 43.2459 47.4453 37.641 45.6565C37.6407 48.4384 36.7514 51.4392 35.4081 54.3402C33.8551 57.6939 31.6468 61.0189 29.3003 63.892ZM35.5949 44.6729C35.5721 44.6344 35.5512 44.5944 35.5323 44.553L34.5876 42.4873L29.4791 46.5011L34.787 50.482C35.4597 48.4022 35.7644 46.4284 35.5949 44.6729ZM20.5919 54.3402C22.1449 57.6939 24.3532 61.0189 26.6997 63.892H18.0003H2.02741C2.10686 62.6495 2.40406 60.3332 3.47228 57.6755C4.30423 55.6056 5.1989 53.4865 7.40531 51.3953C9.47126 49.4373 12.7541 47.4453 18.359 45.6565C18.3593 48.4384 19.2486 51.4392 20.5919 54.3402ZM31.9961 41.98C30.615 42.5672 29.0954 42.8921 27.5 42.8921C26.2432 42.8921 25.0335 42.6905 23.9015 42.3178L27.8229 45.2589L31.9961 41.98ZM13 20.8921H15V29.8921H14H13C12.4477 29.8921 12 29.4444 12 28.8921V21.8921C12 21.3398 12.4477 20.8921 13 20.8921Z" fill="#01488A"/>
</svg>
